<?xml version="1.0" encoding="UTF-8" standalone="no"?>
<!-- Created with Inkscape (http://www.inkscape.org/) -->

<svg
   xmlns:dc="http://purl.org/dc/elements/1.1/"
   xmlns:cc="http://creativecommons.org/ns#"
   xmlns:rdf="http://www.w3.org/1999/02/22-rdf-syntax-ns#"
   xmlns:svg="http://www.w3.org/2000/svg"
   xmlns="http://www.w3.org/2000/svg"
   xmlns:sodipodi="http://sodipodi.sourceforge.net/DTD/sodipodi-0.dtd"
   xmlns:inkscape="http://www.inkscape.org/namespaces/inkscape"
   width="63.269238mm"
   height="15.875001mm"
   viewBox="0 0 63.269237 15.875"
   version="1.1"
   id="svg379"
   inkscape:version="0.92.3 (2405546, 2018-03-11)"
   sodipodi:docname="IONoptix_logo.svg">
  <metadata
     id="metadata10">
    <rdf:RDF>
      <cc:Work
         rdf:about="">
        <dc:format>image/svg+xml</dc:format>
        <dc:type
           rdf:resource="http://purl.org/dc/dcmitype/StillImage" />
        <dc:title></dc:title>
      </cc:Work>
    </rdf:RDF>
  </metadata>
  <sodipodi:namedview
     id="namedview381"
     pagecolor="#ffffff"
     bordercolor="#666666"
     borderopacity="1.0"
     inkscape:showpageshadow="2"
     inkscape:pageopacity="0.0"
     inkscape:pagecheckerboard="0"
     inkscape:deskcolor="#d1d1d1"
     inkscape:document-units="mm"
     showgrid="false"
     inkscape:zoom="5.6568543"
     inkscape:cx="96.328885"
     inkscape:cy="-17.115793"
     inkscape:window-width="3840"
     inkscape:window-height="2035"
     inkscape:window-x="-13"
     inkscape:window-y="-13"
     inkscape:window-maximized="1"
     inkscape:current-layer="layer1"
     fit-margin-top="0"
     fit-margin-left="0"
     fit-margin-right="0"
     fit-margin-bottom="0"
     inkscape:snap-bbox="true"
     inkscape:bbox-paths="true"
     inkscape:bbox-nodes="true"
     inkscape:snap-bbox-edge-midpoints="true"
     inkscape:snap-bbox-midpoints="true" />
  <defs
     id="defs376" />
  <g
     inkscape:label="Layer 1"
     inkscape:groupmode="layer"
     id="layer1"
     transform="translate(23.814493,0.2497397)">
    <rect
       style="fill:#008781;fill-opacity:1;fill-rule:nonzero;stroke:#84ffff;stroke-width:0.79374999;stroke-linecap:round;stroke-linejoin:round;stroke-miterlimit:4;stroke-dasharray:none;stroke-dashoffset:342.83584595;stroke-opacity:1"
       id="rect4354"
       width="102.15041"
       height="37.838684"
       x="-43.131397"
       y="-9.3510752" />
    <rect
       style="fill:#ffffff;fill-opacity:1;fill-rule:nonzero;stroke:#000000;stroke-width:0.27274793;stroke-linecap:round;stroke-linejoin:round;stroke-miterlimit:4;stroke-dasharray:none;stroke-dashoffset:342.83584595;stroke-opacity:1"
       id="rect4147"
       width="24.598085"
       height="8.7230854"
       x="-23.672817"
       y="0.75927442"
       inkscape:export-filename="D:\code\Fluicell\Git\BioZone6\apps\BioZone6\icons\IONoptix_fluicell_logo.png"
       inkscape:export-xdpi="150"
       inkscape:export-ydpi="150" />
    <flowRoot
       xml:space="preserve"
       id="flowRoot4164"
       style="font-style:normal;font-weight:normal;font-size:18.66666603px;line-height:0;font-family:sans-serif;letter-spacing:0px;word-spacing:0px;fill:#000000;fill-opacity:1;stroke:none"
       transform="matrix(0.50759111,0,0,0.50759111,10.250432,6.1039233)"
       inkscape:export-filename="D:\code\Fluicell\Git\BioZone6\apps\BioZone6\icons\IONoptix_fluicell_logo.png"
       inkscape:export-xdpi="150"
       inkscape:export-ydpi="150"><flowRegion
         id="flowRegion4166"><rect
           id="rect4168"
           width="55.293797"
           height="36.563324"
           x="-65.646423"
           y="-0.060318097" /></flowRegion><flowPara
         id="flowPara4170"
         style="font-style:normal;font-variant:normal;font-weight:normal;font-stretch:normal;font-family:'Swis721 Ex BT';-inkscape-font-specification:'Swis721 Ex BT'">I</flowPara></flowRoot>    <flowRoot
       xml:space="preserve"
       id="flowRoot4164-8"
       style="font-style:normal;font-weight:normal;font-size:18.66666603px;line-height:0;font-family:sans-serif;letter-spacing:0px;word-spacing:0px;fill:#000000;fill-opacity:1;stroke:none"
       transform="matrix(0.50759111,0,0,0.50759111,15.425638,6.2545542)"
       inkscape:export-filename="D:\code\Fluicell\Git\BioZone6\apps\BioZone6\icons\IONoptix_fluicell_logo.png"
       inkscape:export-xdpi="150"
       inkscape:export-ydpi="150"><flowRegion
         id="flowRegion4166-3"><rect
           id="rect4168-5"
           width="55.293797"
           height="36.563324"
           x="-65.646423"
           y="-0.060318097" /></flowRegion><flowPara
         id="flowPara4170-3"
         style="font-style:normal;font-variant:normal;font-weight:normal;font-stretch:normal;font-family:'Swis721 Ex BT';-inkscape-font-specification:'Swis721 Ex BT'">O</flowPara></flowRoot>    <flowRoot
       xml:space="preserve"
       id="flowRoot4164-5"
       style="font-style:normal;font-weight:normal;font-size:18.66666603px;line-height:0;font-family:sans-serif;letter-spacing:0px;word-spacing:0px;fill:#000000;fill-opacity:1;stroke:none"
       transform="matrix(0.50759111,0,0,0.50759111,25.780509,6.2070547)"
       inkscape:export-filename="D:\code\Fluicell\Git\BioZone6\apps\BioZone6\icons\IONoptix_fluicell_logo.png"
       inkscape:export-xdpi="150"
       inkscape:export-ydpi="150"><flowRegion
         id="flowRegion4166-9"><rect
           id="rect4168-2"
           width="55.293797"
           height="36.563324"
           x="-65.646423"
           y="-0.060318097" /></flowRegion><flowPara
         id="flowPara4170-9"
         style="font-style:normal;font-variant:normal;font-weight:normal;font-stretch:normal;font-family:'Swis721 Ex BT';-inkscape-font-specification:'Swis721 Ex BT'">N</flowPara></flowRoot>    <rect
       style="fill:#000000;fill-opacity:1;fill-rule:nonzero;stroke:#000000;stroke-width:0.28335094;stroke-linecap:round;stroke-linejoin:round;stroke-miterlimit:4;stroke-dasharray:none;stroke-dashoffset:342.83584595;stroke-opacity:1"
       id="rect4238"
       width="24.587482"
       height="5.2728992"
       x="-23.672817"
       y="9.4823599"
       inkscape:export-filename="D:\code\Fluicell\Git\BioZone6\apps\BioZone6\icons\IONoptix_fluicell_logo.png"
       inkscape:export-xdpi="150"
       inkscape:export-ydpi="150" />
    <flowRoot
       xml:space="preserve"
       id="flowRoot4164-8-5"
       style="font-style:normal;font-weight:normal;font-size:18.66666603px;line-height:0;font-family:sans-serif;letter-spacing:2.13713694px;word-spacing:0px;fill:#fffffe;fill-opacity:1;stroke:none"
       transform="matrix(0.50759111,0,0,0.50759111,10.731895,11.872723)"
       inkscape:export-filename="D:\code\Fluicell\Git\BioZone6\apps\BioZone6\icons\IONoptix_fluicell_logo.png"
       inkscape:export-xdpi="150"
       inkscape:export-ydpi="150"><flowRegion
         id="flowRegion4166-3-8"
         style="letter-spacing:2.13713694px;fill:#fffffe;fill-opacity:1"><rect
           id="rect4168-5-4"
           width="82.158699"
           height="30.475712"
           x="-65.646423"
           y="-0.060318097"
           style="letter-spacing:2.13713694px;fill:#fffffe;fill-opacity:1" /></flowRegion><flowPara
         id="flowPara4170-3-3"
         style="font-style:normal;font-variant:normal;font-weight:normal;font-stretch:expanded;font-size:11.12006187px;font-family:'Swis721 Ex BT';-inkscape-font-specification:'Swis721 Ex BT Expanded';letter-spacing:2.13713694px;fill:#fffffe;fill-opacity:1">OPTIX</flowPara></flowRoot>    <path
       style="fill:none;stroke:#ffffff;stroke-width:0.75919247;stroke-linecap:butt;stroke-linejoin:miter;stroke-miterlimit:4;stroke-dasharray:none;stroke-opacity:1"
       d="M 3.5579052,-0.2497397 V 15.625261"
       id="path4306"
       inkscape:connector-curvature="0"
       inkscape:export-filename="D:\code\Fluicell\Git\BioZone6\apps\BioZone6\icons\IONoptix_fluicell_logo.png"
       inkscape:export-xdpi="150"
       inkscape:export-ydpi="150" />
    <flowRoot
       xml:space="preserve"
       id="flowRoot4445-5-0"
       style="font-style:normal;font-weight:normal;font-size:40px;line-height:0;font-family:sans-serif;letter-spacing:0px;word-spacing:0px;fill:#ffffff;fill-opacity:1;stroke:none"
       transform="matrix(0.26458333,0,0,0.26458333,-201.82428,-288.47588)"
       inkscape:export-xdpi="150"
       inkscape:export-ydpi="150"
       inkscape:export-filename="D:\code\Fluicell\Git\BioZone6\apps\BioZone6\icons\IONoptix_fluicell_logo.png"><flowRegion
         id="flowRegion4447-5-3"
         style="fill:#ffffff;fill-opacity:1"><rect
           id="rect4449-7-0"
           width="431.40399"
           height="106.55123"
           x="782.85712"
           y="1095.3768"
           style="fill:#ffffff;fill-opacity:1" /></flowRegion><flowPara
         id="flowPara4451-0-6"
         style="font-style:normal;font-variant:normal;font-weight:bold;font-stretch:normal;font-size:18.66666603px;font-family:Arial;-inkscape-font-specification:'Arial Bold';letter-spacing:0px;fill:#ffffff;fill-opacity:1">Powered by</flowPara></flowRoot>    <path
       inkscape:connector-curvature="0"
       id="path4167"
       d="M 21.750267,12.329367 C 21.288323,12.232583 20.898554,11.898842 20.742308,11.466326 20.633623,11.165443 20.630859,11.119501 20.630859,9.6132506 V 8.2462579 h 0.419901 0.419909 l 0.0063,1.2582088 c 0.0074,1.3966373 0.0063,1.3807043 0.128825,1.6388333 0.146513,0.308517 0.41772,0.460933 0.815665,0.458407 0.323916,-0.0021 0.573665,-0.106582 0.808206,-0.338267 0.120732,-0.11927 0.199285,-0.259292 0.252653,-0.450366 0.03813,-0.136388 0.03918,-0.170845 0.04533,-1.3533848 l 0.0063,-1.2134313 h 0.419879 0.419868 v 2.0328341 2.032837 h -0.420886 -0.420895 v -0.35821 c 0,-0.197015 -0.0063,-0.358138 -0.01345,-0.358051 -0.0074,8.4e-5 -0.04354,0.04692 -0.08038,0.104072 -0.19238,0.298632 -0.544521,0.541758 -0.912453,0.629962 -0.198362,0.04755 -0.548005,0.0474 -0.775842,-3.18e-4 z m 7.220694,0.0076 c -0.492064,-0.08889 -0.964145,-0.380353 -1.266922,-0.782179 -0.195631,-0.259625 -0.315307,-0.551801 -0.368492,-0.89967 -0.03379,-0.220659 -0.02299,-0.6699535 0.02064,-0.8667881 0.11698,-0.5267174 0.428192,-0.9609251 0.909518,-1.2689102 0.667605,-0.4271918 1.661403,-0.4542407 2.332261,-0.063484 0.139522,0.081267 0.324341,0.2187178 0.400847,0.2981069 l 0.06059,0.062838 -0.238025,0.2922518 c -0.13091,0.1607754 -0.24439,0.2995303 -0.252175,0.308383 -0.0074,0.00901 -0.04184,-0.00828 -0.07711,-0.03922 -0.238615,-0.209511 -0.561853,-0.3589469 -0.863159,-0.3990422 -0.516973,-0.068795 -1.086161,0.2225997 -1.330593,0.6812107 -0.167873,0.3149498 -0.181081,0.7666091 -0.03273,1.1200611 0.124917,0.297708 0.411235,0.583698 0.710052,0.709247 0.415039,0.174381 0.888283,0.130534 1.26096,-0.116834 0.05254,-0.03488 0.156159,-0.115141 0.230284,-0.178388 l 0.134757,-0.114983 0.244475,0.266093 c 0.134459,0.146351 0.244476,0.27353 0.244476,0.282622 0,0.0092 -0.05041,0.06074 -0.11195,0.114799 -0.362679,0.318382 -0.768759,0.522296 -1.184516,0.594798 -0.198227,0.03457 -0.629511,0.03411 -0.823152,-8.47e-4 z m 4.331552,-2.23e-4 c -0.392544,-0.07004 -0.750054,-0.25308 -1.045312,-0.535167 -0.308697,-0.294933 -0.496629,-0.666691 -0.56945,-1.126454 -0.03473,-0.219328 -0.02394,-0.7382183 0.01937,-0.9282599 0.120195,-0.5277138 0.395181,-0.9255082 0.848113,-1.2268746 0.452477,-0.3010679 1.034297,-0.4085108 1.618375,-0.2988596 0.652503,0.1224991 1.210886,0.5623377 1.4114,1.111763 0.09458,0.2590018 0.110561,0.372854 0.121195,0.8610641 l 0.0095,0.452239 h -1.606111 -1.606101 l 0.0112,0.06716 c 0.0575,0.343066 0.258996,0.602523 0.602971,0.776396 0.399417,0.201904 0.952526,0.204806 1.384415,0.0073 0.135212,-0.06185 0.32037,-0.193417 0.392015,-0.278564 0.02447,-0.02907 0.04755,-0.05287 0.05136,-0.05287 0.01473,0 0.478964,0.51739 0.478964,0.53375 0,0.0095 -0.05444,0.06388 -0.12089,0.120842 -0.315327,0.270125 -0.678387,0.439545 -1.094284,0.510646 -0.245534,0.04199 -0.689167,0.0449 -0.90721,0.006 z M 34.851497,9.8895151 C 34.850862,9.6452783 34.735967,9.384184 34.554577,9.2145092 34.162191,8.8474518 33.482904,8.8084576 32.997787,9.1251422 32.694301,9.3232642 32.55249,9.544401 32.513358,9.8805605 l -0.01193,0.1029851 h 1.175197 1.175196 z M 15.956235,10.61942 V 8.926884 H 15.705489 15.454744 V 8.5865844 8.246286 h 0.250745 0.250746 l 1.06e-4,-0.1925373 c 4.24e-4,-0.5495423 0.108469,-0.8650706 0.394015,-1.1506159 0.155122,-0.1551229 0.307291,-0.2497862 0.510313,-0.3174724 0.12891,-0.042972 0.170236,-0.047869 0.411946,-0.048794 0.233368,-8.465e-4 0.2863,0.00451 0.402988,0.040914 0.165987,0.051828 0.329962,0.1370485 0.48767,0.2534427 l 0.120511,0.088941 -0.118221,0.2018662 c -0.06503,0.111024 -0.142192,0.2441808 -0.171475,0.2958974 -0.02934,0.051718 -0.05719,0.094032 -0.06195,0.094032 -0.0052,0 -0.05444,-0.035847 -0.110232,-0.079659 -0.201836,-0.158458 -0.389175,-0.2027104 -0.607916,-0.1435991 -0.103157,0.02788 -0.134998,0.047114 -0.222044,0.1340618 -0.143886,0.1437415 -0.179015,0.2626303 -0.172078,0.5823317 l 0.0052,0.2322453 0.53284,0.00475 0.532839,0.00475 V 8.5868618 8.9268947 H 17.35346 16.816153 v 1.6925363 1.69254 H 16.386301 15.956456 Z M 18.642808,9.4731521 V 6.6343575 h 0.429844 0.429857 V 9.4731643 12.311969 H 19.072652 18.642808 Z M 25.556236,10.27912 V 8.246286 h 0.420895 0.420895 v 2.032834 2.032839 H 25.977131 25.556236 Z M 36.589082,9.4731521 V 6.6343575 h 0.420894 0.420896 v 2.8388068 2.8388047 h -0.420896 -0.420894 z m 2.023871,0 V 6.6343575 h 0.420895 0.420896 V 9.4731643 12.311969 H 39.033848 38.612953 Z M 25.84875,7.5674468 c -0.155853,-0.040036 -0.321925,-0.1910525 -0.372136,-0.3384091 -0.08949,-0.2626037 0.02193,-0.5451988 0.262247,-0.6652946 0.09362,-0.046773 0.129599,-0.054776 0.245609,-0.05463 0.162121,2.12e-4 0.277137,0.046395 0.383976,0.154174 0.118161,0.1192092 0.145749,0.1900051 0.145749,0.37401 0,0.1769684 -0.02679,0.2512332 -0.135412,0.3749028 -0.111024,0.126454 -0.359152,0.1991305 -0.530033,0.1552435 z"
       style="fill:#ffffff;fill-opacity:1;stroke-width:0.01791046"
       sodipodi:nodetypes="ccsccccccccccccccccsccsccccccsccccccsscsccccscscccccccsscccccsccsscccccsccccccccccccccccccccccccsccccccccccccccccccccccccccccccccccccccccccccccccccccccsccscc"
       inkscape:export-xdpi="150"
       inkscape:export-ydpi="150"
       inkscape:export-filename="D:\code\Fluicell\Git\BioZone6\apps\BioZone6\icons\IONoptix_fluicell_logo.png" />
    <g
       id="g4197"
       transform="matrix(0.08683687,0,0,0.08683687,27.498872,-26.774783)"
       style="fill:#ffffff;fill-opacity:1"
       inkscape:export-xdpi="150"
       inkscape:export-ydpi="150"
       inkscape:export-filename="D:\code\Fluicell\Git\BioZone6\apps\BioZone6\icons\IONoptix_fluicell_logo.png">
      <path
         style="fill:#ffffff;fill-opacity:1;stroke-width:0.16933334"
         d="m -147.51716,470.77543 c -4.02675,-4.95302 -9.67011,-10.92072 -14.23927,-15.05762 -12.66757,-11.46917 -27.71335,-20.72571 -41.33776,-25.432 -11.02643,-3.80888 -20.13213,-3.3907 -28.59945,1.31342 -3.13148,1.73973 -6.22215,4.17466 -10.43546,8.22139 -1.50823,1.44859 -2.79898,2.63144 -2.86834,2.62854 -0.14262,-0.006 -6.02253,-9.71898 -6.10808,-10.08994 -0.0826,-0.35834 5.7399,-6.07811 7.59617,-7.46209 8.06626,-6.01396 17.90053,-9.3667 27.47443,-9.3667 4.10842,0 7.8821,0.56817 11.94347,1.79823 12.69172,3.84391 26.32533,14.12624 40.61192,30.6291 4.46597,5.15878 10.24542,12.2248 16.78782,20.525 l 2.56409,3.253 -0.73141,0.59934 c -0.40227,0.32963 -0.76999,0.59933 -0.81715,0.59933 -0.0472,0 -0.8756,-0.97155 -1.84098,-2.159 z m 2.87825,-2.45674 c -6.47165,-10.66462 -14.1901,-21.77362 -21.48606,-30.92444 -13.78627,-17.29116 -26.1676,-28.26196 -36.32659,-32.18811 -1.98271,-0.76626 -6.32558,-1.8171 -8.46666,-2.04867 -8.71282,-0.94233 -17.96159,2.37788 -27.11224,9.73302 -1.20034,0.9648 -2.98253,2.45621 -3.96043,3.31424 -0.9779,0.85803 -2.05684,1.78215 -2.39764,2.0536 l -0.61964,0.49356 -3.05748,-5.12328 -3.05748,-5.12328 0.62912,-0.65204 c 0.34602,-0.35862 1.42922,-1.35607 2.40712,-2.21655 7.00971,-6.16802 14.9339,-10.98253 21.16667,-12.86025 5.08637,-1.53235 10.98125,-2.20805 15.8637,-1.81837 16.72074,1.33451 29.50324,10.30848 42.45485,29.80548 5.03252,7.57581 9.04273,14.68854 21.25154,37.69283 l 5.93131,11.176 -0.54437,0.47747 c -1.08531,0.95193 -0.96031,1.03561 -2.67572,-1.79121 z m 2.7368,-3.73858 c -11.85702,-31.68428 -23.48823,-54.36642 -34.92093,-68.09968 -1.92021,-2.3066 -5.80988,-6.27068 -7.76385,-7.91237 -4.09627,-3.4416 -8.18406,-5.85084 -12.954,-7.63476 -2.65497,-0.99293 -6.29362,-1.53383 -10.24467,-1.52291 -10.64658,0.0294 -21.83361,4.60024 -34.24746,13.99283 -1.55986,1.18023 -2.89336,2.14269 -2.96333,2.13879 -0.07,-0.004 -1.48839,-2.26951 -3.15207,-5.0347 l -3.02485,-5.02762 0.65419,-0.56773 c 2.30634,-2.00153 7.68636,-5.78248 11.26169,-7.91446 16.61037,-9.90481 32.85328,-12.15692 47.61795,-6.60232 14.0606,5.28973 25.77932,18.00242 33.17719,35.99125 3.10501,7.55021 7.36952,20.09788 12.546,36.91467 3.72541,12.10271 7.23653,23.91278 7.18453,24.16601 -0.0278,0.1353 -0.3937,0.4998 -0.81316,0.81001 l -0.76265,0.56401 z"
         id="path4211"
         inkscape:connector-curvature="0"
         sodipodi:nodetypes="cssscccsssssccscsssccscccccssssscsssccccccccssssscccs" />
    </g>
  </g>
</svg>
